<svg width="48" height="45" viewBox="0 0 48 45" fill="none" xmlns="http://www.w3.org/2000/svg">
<path d="M8.72649 39.2735C7.78923 40.2108 6.25895 40.2177 5.41994 39.1915C2.73802 35.9114 0.962737 31.9673 0.295479 27.7544C-0.497377 22.7485 0.314884 17.6201 2.61585 13.1042C4.91681 8.58833 8.58834 4.9168 13.1042 2.61584C17.6201 0.314879 22.7485 -0.497378 27.7544 0.295482C32.7603 1.08834 37.3867 3.44561 40.9706 7.02945C44.5544 10.6133 46.9117 15.2397 47.7045 20.2456C48.4974 25.2515 47.6851 30.3799 45.3841 34.8958C43.4477 38.6963 40.5405 41.8988 36.9762 44.1896C35.8612 44.9062 34.4079 44.4268 33.8062 43.2458C33.2044 42.0647 33.6847 40.6314 34.7815 39.8871C37.4504 38.0759 39.6313 35.6134 41.1073 32.7166C42.9481 29.1039 43.5979 25.0012 42.9636 20.9965C42.3293 16.9918 40.4435 13.2906 37.5765 10.4236C34.7094 7.55649 31.0083 5.67067 27.0036 5.03638C22.9988 4.4021 18.8961 5.0519 15.2834 6.89267C11.6707 8.73344 8.73345 11.6707 6.89268 15.2834C5.05191 18.8961 4.4021 22.9988 5.03638 27.0035C5.54497 30.2147 6.85822 33.2306 8.83677 35.7778C9.64986 36.8246 9.66375 38.3362 8.72649 39.2735Z" fill="#303030"/>
</svg>
