<svg width="48" height="48" viewBox="0 0 48 48" fill="none" xmlns="http://www.w3.org/2000/svg">
<path d="M16.4141 3.70264C15.9608 2.45709 16.6013 1.06726 17.8858 0.740529C21.992 -0.303891 26.3169 -0.245988 30.4171 0.92972C35.289 2.32673 39.5937 5.23025 42.714 9.22413C45.8344 13.218 47.6103 18.0972 47.7871 23.1624C47.964 28.2276 46.5328 33.2188 43.6987 37.4206C40.8645 41.6224 36.7729 44.8192 32.0102 46.5526C27.2476 48.2861 22.0584 48.4673 17.1865 47.0703C12.3145 45.6733 8.00985 42.7697 4.8895 38.7759C2.26345 35.4147 0.589645 31.4264 0.0198071 27.228C-0.158461 25.9146 0.890239 24.8001 2.21492 24.7538C3.53959 24.7076 4.63564 25.7486 4.8467 27.0572C5.36027 30.2415 6.67035 33.2588 8.67195 35.8207C11.1682 39.0158 14.6119 41.3386 18.5095 42.4562C22.4071 43.5738 26.5584 43.4289 30.3685 42.0421C34.1787 40.6553 37.452 38.098 39.7193 34.7365C41.9866 31.3751 43.1316 27.3821 42.9901 23.3299C42.8486 19.2778 41.4279 15.3744 38.9316 12.1793C36.4353 8.9842 32.9916 6.66139 29.094 5.54378C25.9688 4.64764 22.6804 4.56326 19.5357 5.27992C18.2433 5.57443 16.8675 4.94818 16.4141 3.70264Z" fill="#0DDD00"/>
</svg>
