<svg width="72" height="72" viewBox="0 0 72 72" fill="none" xmlns="http://www.w3.org/2000/svg">
<path d="M24.3641 4.53827C23.8882 3.2309 24.5606 1.77618 25.898 1.3929C32.3647 -0.460297 39.2395 -0.468868 45.7381 1.39458C53.0461 3.4901 59.503 7.84537 64.1836 13.8362C68.8641 19.827 71.5279 27.1458 71.7933 34.7436C72.0586 42.3414 69.9118 49.8282 65.6605 56.131C61.4093 62.4337 55.2719 67.2287 48.1279 69.8289C40.9839 72.4291 33.2002 72.7009 25.8922 70.6054C18.5843 68.5099 12.1273 64.1546 7.44679 58.1638C3.28461 52.8365 0.717192 46.459 0.0129997 39.769C-0.132643 38.3854 0.964282 37.217 2.35471 37.1685C3.74514 37.1199 4.90109 38.21 5.06247 39.5919C5.71951 45.2177 7.91005 50.5733 11.417 55.0619C15.4425 60.2143 20.9958 63.9601 27.281 65.7623C33.5662 67.5646 40.2606 67.3308 46.4047 65.0945C52.5489 62.8582 57.8274 58.7342 61.4836 53.3136C65.1399 47.8929 66.9863 41.4539 66.7581 34.9195C66.5299 28.385 64.2389 22.0904 60.2134 16.9381C56.1879 11.7857 50.6346 8.03992 44.3494 6.23767C38.8738 4.66758 33.0877 4.64275 27.6254 6.14104C26.2836 6.50907 24.8399 5.84565 24.3641 4.53827Z" fill="#0DDD00" fill-opacity="0.24"/>
</svg>
