<svg width="676" height="130" viewBox="0 0 676 130" fill="none" xmlns="http://www.w3.org/2000/svg">
<g clip-path="url(#clip0_6733_3979)">
<path d="M0.535156 89.6265C11.1538 78.0348 20.949 109.534 34.0807 89.3931C36.6792 91.0264 38.9997 94.573 40.454 90.5784C45.3409 83.2427 49.3723 98.3995 53.6497 93.845C63.306 84.0826 69.027 103.01 74.4486 101.059C79.3997 92.0437 82.458 98.8662 87.0028 93.7983C97.1188 93.7983 94.5844 110.085 108.165 104.345C121.158 91.2131 125.884 113.323 138.834 111.158C143.988 109.982 147.507 106.323 150.629 102.497C156.371 106.641 159.195 100.901 162.007 97.2236C168.412 91.3531 178.154 104.709 182.998 94.3583C199.381 121.359 200.899 76.1216 209.304 92.8184C213.582 100.583 216.651 87.0226 223.623 93.005C230.349 90.7464 231.108 103.001 237.995 95.9916C242.935 98.4369 246.379 97.3169 249.148 91.3717C254.538 100.63 257.061 74.3109 267.659 97.7369C270.118 93.0704 273.551 96.7756 276.342 95.8796C281.036 95.497 285.282 93.3784 288.661 97.8582C296.617 82.3094 302.851 96.7663 312.828 93.145C321.468 89.8225 323.222 100.91 327.564 103.281C332.183 98.5302 340.171 89.7291 347.09 96.2903C349.175 91.6331 353.185 92.6597 357.837 92.4917C365.076 94.1157 368.178 84.6706 376.24 86.6586C384.261 94.8156 384.956 85.4266 389.618 90.0371C414.534 77.1295 392.698 73.975 421.292 95.1236C423.613 95.1703 426.735 99.9768 428.756 96.7943C439.738 81.7027 449.822 100.359 457.319 88.2172C477.936 74.9269 468.525 104.401 486.993 81.8334C490.639 78.4175 494.019 77.0455 496.906 72.9297C499.654 71.511 500.253 73.9003 501.814 75.5242C504.199 73.7323 505.557 69.6631 509.203 70.7457C516.004 81.5067 513.096 73.3776 521.458 70.2044C524.966 62.6166 528.911 68.1605 530.494 62.2247C533.895 56.2982 532.002 34.6268 542.76 43.2319C548.235 43.5212 545.807 36.4281 550.63 35.2895C556.351 36.3534 555.806 27.0764 559.356 33.1149C565.494 21.1219 573.995 10.9302 575.503 -2.2107C577.599 0.878536 577.513 6.95435 581.673 2.39049C590.174 41.0666 592.687 11.3129 601.349 22.7272C607.765 -4.21731 615.197 22.4752 617.336 34.0668C625.666 27.3844 629.527 20.0953 631.409 8.94229C638.103 36.0921 641.674 -5.80392 652.742 -12.1784C655.587 -6.27991 656.282 -14.9783 657.725 -17.7129C663.532 -3.37733 668.13 -23.854 675.455 -13.569" stroke="#0DDD00" stroke-width="1.60459" stroke-linecap="round" stroke-linejoin="round"/>
</g>
<defs>
<clipPath id="clip0_6733_3979">
<rect width="676" height="130" fill="white"/>
</clipPath>
</defs>
</svg>
