<svg width="20" height="20" viewBox="0 0 20 20" fill="none" xmlns="http://www.w3.org/2000/svg">
<path d="M8.59933 0C13.3487 0 17.1994 3.85001 17.1997 8.59933C17.1997 10.7857 16.3814 12.7796 15.0373 14.2971L20 19.2598L19.2598 20L14.2971 15.0373C12.7796 16.3814 10.7857 17.1997 8.59933 17.1997C3.85001 17.1994 0 13.3487 0 8.59933C0.000236599 3.85015 3.85015 0.000236595 8.59933 0ZM8.59933 1.04693C4.42836 1.04716 1.04716 4.42836 1.04693 8.59933C1.04693 12.7705 4.42821 16.1525 8.59933 16.1527C12.7706 16.1527 16.1527 12.7706 16.1527 8.59933C16.1525 4.42821 12.7705 1.04693 8.59933 1.04693Z" fill="white" fill-opacity="0.3"/>
</svg>
