<svg width="56" height="56" viewBox="0 0 56 56" fill="none" xmlns="http://www.w3.org/2000/svg">
<rect width="56" height="56" rx="28" fill="#191919"/>
<path d="M37.3186 42.3629C35.5178 44.1105 33.5309 43.8381 31.6371 43.0141C29.6236 42.1735 27.783 42.1203 25.6566 43.0141C23.0085 44.157 21.6031 43.8248 20.0083 42.3629C11.0043 33.0931 12.3333 18.9724 22.5666 18.4408C25.0485 18.5737 26.7862 19.813 28.2481 19.916C30.421 19.4741 32.5009 18.2082 34.8267 18.3744C37.6209 18.6003 39.7108 19.7034 41.1062 21.6869C35.3583 25.1423 36.7205 32.7176 42 34.844C40.9434 37.6183 39.5879 40.3594 37.3153 42.3861L37.3186 42.3629ZM28.0488 18.3411C27.7796 14.2212 31.1188 10.8323 34.9596 10.5C35.4879 15.2512 30.6403 18.8063 28.0488 18.3411Z" fill="white"/>
</svg>
