<svg width="48" height="48" viewBox="0 0 48 48" fill="none" xmlns="http://www.w3.org/2000/svg">
<rect width="48" height="48" rx="24" fill="black"/>
<path d="M23.9999 7.67969C20.7721 7.67969 17.6168 8.63684 14.933 10.4301C12.2492 12.2234 10.1574 14.7722 8.92222 17.7543C7.687 20.7364 7.36381 24.0178 7.99352 27.1836C8.62323 30.3493 10.1776 33.2573 12.46 35.5397C14.7423 37.8221 17.6503 39.3764 20.8161 40.0061C23.9818 40.6358 27.2632 40.3126 30.2453 39.0774C33.2274 37.8422 35.7763 35.7504 37.5695 33.0666C39.3628 30.3828 40.3199 27.2275 40.3199 23.9997C40.3199 19.6714 38.6005 15.5203 35.5399 12.4597C32.4793 9.39911 28.3283 7.67969 23.9999 7.67969ZM31.4879 31.215C31.4183 31.3292 31.3268 31.4285 31.2187 31.5073C31.1107 31.586 30.9881 31.6427 30.8581 31.6741C30.7281 31.7055 30.5932 31.7109 30.4611 31.6902C30.329 31.6694 30.2023 31.6227 30.0883 31.553C26.2579 29.2125 21.4329 28.6826 15.7516 29.9805C15.6196 30.0153 15.4819 30.0231 15.3468 30.0036C15.2117 29.984 15.0819 29.9375 14.9651 29.8667C14.8483 29.796 14.747 29.7024 14.6671 29.5917C14.5873 29.481 14.5305 29.3553 14.5002 29.2222C14.4699 29.089 14.4667 28.9512 14.4908 28.8168C14.5149 28.6824 14.5658 28.5542 14.6405 28.4399C14.7152 28.3256 14.8121 28.2275 14.9254 28.1514C15.0388 28.0754 15.1663 28.0229 15.3004 27.9971C21.5174 26.5763 26.8492 27.1869 31.15 29.8173C31.2644 29.8868 31.3638 29.9782 31.4428 30.0862C31.5217 30.1943 31.5785 30.3168 31.6099 30.4469C31.6413 30.577 31.6467 30.7119 31.6257 30.8441C31.6048 30.9762 31.558 31.103 31.4879 31.217V31.215ZM33.4847 26.7722C33.3974 26.9146 33.2829 27.0384 33.1477 27.1365C33.0126 27.2346 32.8594 27.3051 32.6969 27.344C32.5345 27.3828 32.366 27.3893 32.201 27.363C32.0361 27.3367 31.8779 27.2782 31.7356 27.1907C27.3484 24.5027 20.6611 23.7136 15.4732 25.2899C15.3115 25.3454 15.1402 25.3677 14.9697 25.3555C14.7991 25.3434 14.6328 25.297 14.4806 25.2191C14.3283 25.1412 14.1934 25.0335 14.0837 24.9023C13.974 24.7712 13.8919 24.6192 13.8422 24.4556C13.7925 24.292 13.7763 24.1201 13.7946 23.9501C13.8128 23.7801 13.8651 23.6155 13.9483 23.4661C14.0315 23.3168 14.144 23.1857 14.279 23.0808C14.414 22.9759 14.5687 22.8992 14.734 22.8554C20.6611 21.0563 28.0281 21.928 33.0662 25.023C33.2085 25.1107 33.3322 25.2255 33.4301 25.361C33.528 25.4964 33.5982 25.6499 33.6367 25.8125C33.6753 25.9752 33.6813 26.1438 33.6546 26.3088C33.6278 26.4738 33.5688 26.6319 33.4809 26.7741L33.4847 26.7722ZM33.6575 22.145C28.3967 19.0211 19.7183 18.7331 14.6975 20.2576C14.5044 20.3209 14.3005 20.345 14.0979 20.3285C13.8953 20.312 13.6981 20.2552 13.5178 20.1614C13.3374 20.0676 13.1776 19.9388 13.0478 19.7824C12.9179 19.626 12.8206 19.4453 12.7615 19.2508C12.7024 19.0563 12.6828 18.852 12.7037 18.6498C12.7247 18.4476 12.7858 18.2516 12.8835 18.0734C12.9812 17.8952 13.1136 17.7382 13.2728 17.6118C13.4319 17.4854 13.6148 17.3921 13.8105 17.3373C19.5705 15.5862 29.159 15.9242 35.2147 19.5203C35.5516 19.7322 35.7924 20.0672 35.8859 20.4541C35.9793 20.841 35.918 21.249 35.7149 21.5913C35.5118 21.9336 35.1831 22.1831 34.7988 22.2865C34.4145 22.3899 34.005 22.3391 33.6575 22.145Z" fill="#00D84D"/>
</svg>
