<svg width="64" height="16" viewBox="0 0 64 16" fill="none" xmlns="http://www.w3.org/2000/svg">
<path d="M9.16949 9.54028C9.16949 7.51043 7.74577 5.81889 5.49153 5.81889C3.23729 5.81889 1.84746 7.51043 1.84746 9.54028C1.84746 11.604 3.23729 13.2955 5.49153 13.2955C7.74577 13.2955 9.16949 11.6209 9.16949 9.54028ZM11.1186 9.55719C11.1186 12.602 8.81356 15.0547 5.71187 15.0547C4.25424 15.0716 2.84746 14.4288 1.9322 13.2786V14.801H0V0H1.9322V5.90347C2.83051 4.71939 4.25424 4.04278 5.74576 4.05969C8.84746 4.07661 11.1186 6.51242 11.1186 9.55719Z" fill="white" fill-opacity="0.5"/>
<path d="M21.7881 9.54018C21.7881 7.51034 20.3474 5.78497 18.0932 5.78497C15.8389 5.78497 14.4322 7.51034 14.4322 9.5571C14.4322 11.6039 15.8389 13.3292 18.0932 13.3292C20.3474 13.3292 21.805 11.6039 21.7881 9.54018ZM23.5339 4.31333V14.8009H21.6695V13.3123C20.7373 14.4456 19.3305 15.0884 17.8559 15.0546C14.7542 15.0546 12.4491 12.6357 12.4491 9.48944C12.4491 6.34317 14.7542 4.0596 17.8559 4.0596C19.3305 4.04268 20.7373 4.70238 21.6695 5.83571V4.31333H23.5339Z" fill="white" fill-opacity="0.5"/>
<path d="M24.8643 4.33112H26.6948V5.87042C27.3389 4.61868 28.3897 4.04355 29.7965 4.04355C30.2372 4.04355 30.644 4.0943 31.0677 4.19579L30.8982 6.02265C30.5253 5.90425 30.1525 5.8535 29.7626 5.8535C28.1525 5.8535 26.7965 6.90225 26.7965 9.25349V14.8187H24.8643V4.33112Z" fill="white" fill-opacity="0.5"/>
<path d="M40.1187 9.52249C40.1187 7.49264 38.6781 5.76727 36.4069 5.76727C34.1357 5.76727 32.7459 7.49264 32.7459 9.5394C32.7459 11.5862 34.1526 13.3115 36.4069 13.3115C38.6611 13.3115 40.1187 11.6031 40.1187 9.52249ZM41.8476 4.31255V14.8001H39.9832V13.3115C39.0509 14.4449 37.6442 15.0877 36.1696 15.0538C33.0679 15.0538 30.7628 12.6349 30.7628 9.47174C30.7628 6.30857 33.0679 4.04191 36.1696 4.04191C37.6442 4.02499 39.0509 4.68469 39.9832 5.81802V4.31255H41.8476Z" fill="white" fill-opacity="0.5"/>
<path d="M46.7967 10.0146L45.7628 10.8942V14.8863H43.8306V0.102219H45.7628V8.66141L50.6103 4.41564H53.2205L48.1696 8.81365L53.4069 14.8863H50.8645L46.7967 10.0146Z" fill="white" fill-opacity="0.5"/>
<path d="M62.2544 9.60702C62.2544 7.57717 60.8137 5.8518 58.5425 5.8518C56.2713 5.8518 54.8815 7.57717 54.8815 9.62393C54.8815 11.6707 56.3052 13.3961 58.5425 13.3961C60.7798 13.3961 62.2544 11.6707 62.2544 9.60702ZM64.0001 4.39708V14.8846H62.1527V13.3961C61.2205 14.5294 59.8137 15.1722 58.3391 15.1383C55.2374 15.1383 52.9323 12.7025 52.9323 9.55627C52.9323 6.41001 55.2374 4.12643 58.3391 4.12643C59.8137 4.10952 61.2205 4.76922 62.1527 5.90255V4.38016L64.0001 4.39708Z" fill="white" fill-opacity="0.5"/>
</svg>
